<?xml version="1.0" encoding="UTF-8" standalone="no"?>
<svg
   viewBox="0 0 256 256"
   version="1.1"
   id="svg4"
   sodipodi:docname="bookmark_add.0.svg"
   inkscape:version="1.1.2 (0a00cf5339, 2022-02-04)"
   width="256"
   height="256"
   xmlns:inkscape="http://www.inkscape.org/namespaces/inkscape"
   xmlns:sodipodi="http://sodipodi.sourceforge.net/DTD/sodipodi-0.dtd"
   xmlns="http://www.w3.org/2000/svg"
   xmlns:svg="http://www.w3.org/2000/svg"
   xmlns:rdf="http://www.w3.org/1999/02/22-rdf-syntax-ns#"
   xmlns:cc="http://creativecommons.org/ns#"
   xmlns:dc="http://purl.org/dc/elements/1.1/">
  <metadata
     id="metadata64">
    <rdf:RDF>
      <cc:Work
         rdf:about="">
        <dc:format>image/svg+xml</dc:format>
        <dc:type
           rdf:resource="http://purl.org/dc/dcmitype/StillImage" />
      </cc:Work>
    </rdf:RDF>
  </metadata>
  <defs
     id="defs8" />
  <sodipodi:namedview
     id="namedview6"
     pagecolor="#ffffff"
     bordercolor="#666666"
     borderopacity="1.0"
     inkscape:pageshadow="2"
     inkscape:pageopacity="0.0"
     inkscape:pagecheckerboard="0"
     showgrid="false"
     inkscape:zoom="1.8948955"
     inkscape:cx="128.23926"
     inkscape:cy="143.54354"
     inkscape:window-width="1600"
     inkscape:window-height="837"
     inkscape:window-x="0"
     inkscape:window-y="28"
     inkscape:window-maximized="1"
     inkscape:current-layer="svg4"
     inkscape:document-rotation="0"
     inkscape:snap-global="false" />
  <!--! Font Awesome Free 6.1.1 by @fontawesome - https://fontawesome.com License - https://fontawesome.com/license/free (Icons: CC BY 4.0, Fonts: SIL OFL 1.1, Code: MIT License) Copyright 2022 Fonticons, Inc. -->
  <g
     id="g829"
     transform="matrix(0.52989018,0,0,0.52989018,-6.470152,-10.599111)">
    <path
       id="path2-5"
       style="fill:#888888;fill-opacity:1;stroke-width:0.902376"
       d="m 127.12371,32.512677 c -23.91297,0 -43.312503,19.39954 -43.312503,43.3125 V 380.499 h 27.441403 v -25.26171 c 0,-14.37224 11.57112,-25.94141 25.94336,-25.94141 h 11.13086 c 14.37224,0 25.94141,11.56917 25.94141,25.94141 V 380.499 h 29.69726 c 14.37224,0 25.94141,11.56917 25.94141,25.94141 v 2.86524 L 257.06707,393.4619 430.32293,494.5283 V 75.825177 c 0,-23.91296 -19.4015,-43.3125 -43.31446,-43.3125 z m 111.68945,51.261719 c 4.5974,0.0412 9.25704,0.353748 13.96289,0.949218 50.64177,6.41149 92.10478,47.581836 98.88281,98.173826 3.97504,29.74375 -3.44925,57.65707 -18.49804,79.99805 l 66.17578,66.17773 c 8.62429,8.62458 8.62446,22.6658 -0.004,31.3125 -8.63563,8.63563 -22.63781,8.63563 -31.27344,0 l -66.17773,-66.17578 c -22.33544,15.05101 -50.25431,22.47255 -79.99805,18.49805 -50.59739,-6.74487 -91.77435,-48.24236 -98.1875,-98.90625 C 114.76355,143.21391 169.85207,83.155616 238.81307,83.774396 Z M 237.23894,127.999 c -39.0207,0 -70.76562,31.74493 -70.76562,70.76563 0,39.03177 31.74492,70.76563 70.76562,70.76563 39.02069,0 70.76563,-31.74494 70.76563,-70.76563 0,-39.0207 -31.74494,-70.76561 -70.76563,-70.76563 z M 83.811207,443.51463 v 51.01367 l 27.441403,-16.00781 v -35.00586 z" />
    <g
       id="g98"
       transform="translate(-3.8675523,-18.833776)">
      <rect
         style="opacity:1;fill:#35c74b;stroke-width:6.80534"
         id="rect10-6"
         width="42.884811"
         height="148.65932"
         x="124.94159"
         y="358.58829"
         ry="21.442406" />
      <rect
         style="fill:#35c74b;stroke-width:6.80534"
         id="rect10-6-7"
         width="42.884811"
         height="148.65932"
         x="410.24094"
         y="-221.87907"
         ry="21.442406"
         transform="rotate(90)" />
    </g>
  </g>
</svg>
