<?xml version="1.0" encoding="UTF-8" standalone="no"?>
<svg
   viewBox="0 0 256 256"
   version="1.1"
   id="svg4"
   sodipodi:docname="mybookmarks.0.svg"
   inkscape:version="1.1.2 (0a00cf5339, 2022-02-04)"
   width="256"
   height="256"
   xmlns:inkscape="http://www.inkscape.org/namespaces/inkscape"
   xmlns:sodipodi="http://sodipodi.sourceforge.net/DTD/sodipodi-0.dtd"
   xmlns="http://www.w3.org/2000/svg"
   xmlns:svg="http://www.w3.org/2000/svg">
  <defs
     id="defs8" />
  <sodipodi:namedview
     id="namedview6"
     pagecolor="#ffffff"
     bordercolor="#666666"
     borderopacity="1.0"
     inkscape:pageshadow="2"
     inkscape:pageopacity="0.0"
     inkscape:pagecheckerboard="0"
     showgrid="false"
     inkscape:zoom="1.2261088"
     inkscape:cx="172.90472"
     inkscape:cy="145.17471"
     inkscape:window-width="1600"
     inkscape:window-height="837"
     inkscape:window-x="0"
     inkscape:window-y="28"
     inkscape:window-maximized="1"
     inkscape:current-layer="svg4"
     lock-margins="false"
     viewbox-width="124.6" />
  <!--! Font Awesome Free 6.1.1 by @fontawesome - https://fontawesome.com License - https://fontawesome.com/license/free (Icons: CC BY 4.0, Fonts: SIL OFL 1.1, Code: MIT License) Copyright 2022 Fonticons, Inc. -->
  <path
     id="path2"
     d="m 63.318923,8.8818844 c -12.298879,0 -22.277216,9.9783336 -22.277216,22.2772106 V 246.50547 l 89.108853,-51.98016 89.10884,51.98016 V 31.159095 c 0,-12.298877 -9.97833,-22.2772106 -22.27722,-22.2772106 z M 120.76232,35.247237 c 2.36453,0.02121 4.76069,0.181421 7.181,0.48768 26.046,3.297548 47.37189,24.472256 50.85795,50.492655 2.04444,15.297758 -1.77435,29.654848 -9.51423,41.145228 l 34.03584,34.03583 c 4.43564,4.43578 4.43568,11.65796 -0.002,16.10512 -4.44146,4.44146 -11.64371,4.44146 -16.08517,0 l -34.03573,-34.03584 c -11.48753,7.74101 -25.84746,11.55839 -41.14522,9.51423 C 86.03168,149.52313 64.854325,128.17976 61.555923,102.12238 56.961859,65.817755 85.294549,34.928984 120.76246,35.247237 Z m -0.80946,22.744952 c -20.069069,0 -36.396265,16.327193 -36.396265,36.396252 0,20.074779 16.327196,36.396279 36.396265,36.396279 20.06905,0 36.39626,-16.3272 36.39626,-36.396279 0,-20.069059 -16.32721,-36.396252 -36.39626,-36.396252 z"
     style="fill:#666666;fill-opacity:1;stroke-width:0.464109" />
</svg>
