<?xml version="1.0" encoding="UTF-8" standalone="no"?>
<svg
   viewBox="0 0 16 16"
   version="1.1"
   id="svg4"
   sodipodi:docname="mybookmarks.0.svg"
   inkscape:version="1.1.2 (0a00cf5339, 2022-02-04)"
   width="16"
   height="16"
   xmlns:inkscape="http://www.inkscape.org/namespaces/inkscape"
   xmlns:sodipodi="http://sodipodi.sourceforge.net/DTD/sodipodi-0.dtd"
   xmlns="http://www.w3.org/2000/svg"
   xmlns:svg="http://www.w3.org/2000/svg">
  <defs
     id="defs8" />
  <sodipodi:namedview
     id="namedview6"
     pagecolor="#ffffff"
     bordercolor="#666666"
     borderopacity="1.0"
     inkscape:pageshadow="2"
     inkscape:pageopacity="0.0"
     inkscape:pagecheckerboard="0"
     showgrid="false"
     inkscape:zoom="15.917122"
     inkscape:cx="14.072896"
     inkscape:cy="7.9160039"
     inkscape:window-width="1600"
     inkscape:window-height="837"
     inkscape:window-x="0"
     inkscape:window-y="28"
     inkscape:window-maximized="1"
     inkscape:current-layer="svg4"
     lock-margins="false"
     viewbox-width="124.6" />
  <!--! Font Awesome Free 6.1.1 by @fontawesome - https://fontawesome.com License - https://fontawesome.com/license/free (Icons: CC BY 4.0, Fonts: SIL OFL 1.1, Code: MIT License) Copyright 2022 Fonticons, Inc. -->
  <path
     id="path2"
     d="m 3.9976373,0.71590307 c -0.7546442,0 -1.3669031,0.61225853 -1.3669031,1.36690303 V 15.296198 l 5.4676114,-3.18944 5.4676104,3.18944 V 2.0828061 c 0,-0.7546445 -0.612258,-1.36690303 -1.366903,-1.36690303 z M 7.5222942,2.3336493 c 0.145085,0.0013 0.29211,0.011132 0.4406179,0.029924 1.5981519,0.2023332 2.9066819,1.5015878 3.1205819,3.0981674 0.125444,0.9386526 -0.108872,1.8195848 -0.583782,2.5246212 l 2.088398,2.0883951 c 0.272166,0.272176 0.272168,0.715319 -1.63e-4,0.988192 -0.272523,0.272522 -0.714444,0.272522 -0.986967,0 L 9.5125651,8.9745517 C 8.8077041,9.4495317 7.9265968,9.6837607 6.9879435,9.5583342 5.3912651,9.3454794 4.0918476,8.035877 3.8894618,6.4370274 3.6075753,4.2094192 5.3460358,2.3141218 7.5223037,2.3336493 Z M 7.4726262,3.729252 c -1.231414,0 -2.2332306,1.0018172 -2.2332306,2.2332318 0,1.2317633 1.0018166,2.2332302 2.2332306,2.2332302 1.2314126,0 2.23323,-1.0018172 2.23323,-2.2332302 0,-1.2314146 -1.0018174,-2.2332318 -2.23323,-2.2332318 z"
     style="fill:#666666;fill-opacity:1;stroke-width:0.0284772" />
</svg>
